<mxfile host="app.diagrams.net" modified="2023-07-06T12:28:40.891Z" agent="Mozilla/5.0 (Windows NT 10.0; Win64; x64) AppleWebKit/537.36 (KHTML, like Gecko) Chrome/114.0.0.0 Safari/537.36" version="21.2.9" etag="ERcJbi1BVwMk0ea92tXO" type="github">
  <diagram name="ページ1" id="XoRTsq0yhZi8JfhcMJuv">
    <mxGraphModel>
      <root>
        <mxCell id="0" />
        <mxCell id="1" parent="0" />
      </root>
    </mxGraphModel>
  </diagram>
</mxfile>
